<svg xmlns="http://www.w3.org/2000/svg" xmlns:xlink="http://www.w3.org/1999/xlink" width="226" zoomAndPan="magnify" viewBox="0 0 169.92 226.499992" height="302" preserveAspectRatio="xMidYMid meet" version="1.0"><defs><filter x="0%" y="0%" width="100%" height="100%" id="id1"><feColorMatrix values="0 0 0 0 1 0 0 0 0 1 0 0 0 0 1 0 0 0 1 0" color-interpolation-filters="sRGB"/></filter><g/><clipPath id="id2"><path d="M 0.148438 0 L 169.691406 0 L 169.691406 225.667969 L 0.148438 225.667969 Z M 0.148438 0 " clip-rule="nonzero"/></clipPath><mask id="id3"><g filter="url(#id1)"><rect x="-16.992" width="203.904" fill="#000000" y="-22.649999" height="271.79999" fill-opacity="0.3686"/></g></mask><clipPath id="id4"><path d="M 0.148438 0 L 169.691406 0 L 169.691406 225.667969 L 0.148438 225.667969 Z M 0.148438 0 " clip-rule="nonzero"/></clipPath><clipPath id="id5"><rect x="0" width="170" y="0" height="226"/></clipPath><clipPath id="id6"><path d="M 66.152344 205 L 103.515625 205 L 103.515625 225.667969 L 66.152344 225.667969 Z M 66.152344 205 " clip-rule="nonzero"/></clipPath><clipPath id="id7"><path d="M 66.152344 196.417969 L 103.515625 196.417969 L 103.515625 217 L 66.152344 217 Z M 66.152344 196.417969 " clip-rule="nonzero"/></clipPath></defs><g clip-path="url(#id2)"><g mask="url(#id3)"><g transform="matrix(1, 0, 0, 1, 0.000000000000000028, 0)"><g clip-path="url(#id5)"><g clip-path="url(#id4)"><path fill="#a6a6a6" d="M 0.148438 0 L 169.773438 0 L 169.773438 225.667969 L 0.148438 225.667969 L 0.148438 0 " fill-opacity="1" fill-rule="nonzero"/></g></g></g></g></g><g clip-path="url(#id6)"><path fill="#a6a6a6" d="M 103.515625 216.519531 L 103.515625 238.265625 L 66.152344 238.265625 L 66.152344 216.519531 L 84.835938 205.640625 L 103.515625 216.519531 " fill-opacity="1" fill-rule="nonzero"/></g><g clip-path="url(#id7)"><path fill="#737373" d="M 84.835938 196.417969 L 66.152344 207.296875 L 66.152344 216.519531 L 84.835938 205.640625 L 103.515625 216.519531 L 103.515625 207.296875 C 103.515625 207.296875 84.835938 196.417969 84.835938 196.417969 " fill-opacity="1" fill-rule="nonzero"/></g><g fill="#000000" fill-opacity="1"><g transform="translate(27.34896, 44.009656)"><g><path d="M 1.34375 0 L 1.34375 -12.859375 L 10.4375 -12.859375 C 10.4375 -12.703125 10.429688 -12.5 10.421875 -12.25 C 10.410156 -12.007812 10.394531 -11.757812 10.375 -11.5 C 10.351562 -11.238281 10.320312 -10.988281 10.28125 -10.75 C 10.25 -10.507812 10.203125 -10.304688 10.140625 -10.140625 L 4.5 -10.140625 L 4.5 -7.234375 L 9.5 -7.234375 C 9.5 -7.066406 9.488281 -6.859375 9.46875 -6.609375 C 9.457031 -6.367188 9.441406 -6.117188 9.421875 -5.859375 C 9.410156 -5.597656 9.382812 -5.347656 9.34375 -5.109375 C 9.3125 -4.867188 9.265625 -4.664062 9.203125 -4.5 L 4.5 -4.5 L 4.5 0 Z M 1.34375 0 "/></g></g></g><g fill="#000000" fill-opacity="1"><g transform="translate(38.458783, 44.009656)"><g><path d="M 1.15625 0 L 1.15625 -9.453125 L 4.1875 -9.453125 L 4.1875 0 Z M 0.8125 -12.046875 C 1.0625 -12.367188 1.359375 -12.6875 1.703125 -13 C 2.046875 -13.320312 2.367188 -13.597656 2.671875 -13.828125 C 2.972656 -13.597656 3.289062 -13.316406 3.625 -12.984375 C 3.957031 -12.660156 4.25 -12.347656 4.5 -12.046875 C 4.25 -11.742188 3.953125 -11.425781 3.609375 -11.09375 C 3.273438 -10.757812 2.960938 -10.488281 2.671875 -10.28125 C 2.378906 -10.5 2.054688 -10.769531 1.703125 -11.09375 C 1.359375 -11.414062 1.0625 -11.734375 0.8125 -12.046875 Z M 0.8125 -12.046875 "/></g></g></g><g fill="#000000" fill-opacity="1"><g transform="translate(43.777117, 44.009656)"><g><path d="M 0.71875 -4.015625 C 0.71875 -5.054688 0.859375 -5.9375 1.140625 -6.65625 C 1.429688 -7.375 1.828125 -7.953125 2.328125 -8.390625 C 2.828125 -8.835938 3.425781 -9.160156 4.125 -9.359375 C 4.820312 -9.554688 5.578125 -9.65625 6.390625 -9.65625 C 6.972656 -9.65625 7.550781 -9.632812 8.125 -9.59375 C 8.695312 -9.550781 9.28125 -9.503906 9.875 -9.453125 L 9.875 -0.75 C 9.875 0.894531 9.425781 2.15625 8.53125 3.03125 C 7.632812 3.914062 6.1875 4.359375 4.1875 4.359375 C 3.644531 4.359375 3.125 4.328125 2.625 4.265625 C 2.125 4.210938 1.765625 4.140625 1.546875 4.046875 C 1.472656 3.773438 1.414062 3.429688 1.375 3.015625 C 1.34375 2.609375 1.328125 2.226562 1.328125 1.875 C 1.503906 1.894531 1.695312 1.914062 1.90625 1.9375 C 2.125 1.957031 2.34375 1.976562 2.5625 2 C 2.789062 2.019531 3.015625 2.03125 3.234375 2.03125 C 3.460938 2.039062 3.660156 2.046875 3.828125 2.046875 C 4.492188 2.046875 5.023438 1.960938 5.421875 1.796875 C 5.828125 1.628906 6.132812 1.410156 6.34375 1.140625 C 6.550781 0.878906 6.6875 0.582031 6.75 0.25 C 6.8125 -0.0820312 6.84375 -0.414062 6.84375 -0.75 L 6.84375 -2.609375 C 6.644531 -2.078125 6.425781 -1.628906 6.1875 -1.265625 C 5.957031 -0.910156 5.707031 -0.625 5.4375 -0.40625 C 5.175781 -0.1875 4.894531 -0.0351562 4.59375 0.046875 C 4.289062 0.140625 3.976562 0.1875 3.65625 0.1875 C 3.1875 0.1875 2.769531 0.0859375 2.40625 -0.109375 C 2.039062 -0.316406 1.726562 -0.601562 1.46875 -0.96875 C 1.21875 -1.332031 1.03125 -1.769531 0.90625 -2.28125 C 0.78125 -2.800781 0.71875 -3.378906 0.71875 -4.015625 Z M 3.671875 -5.109375 C 3.671875 -4.703125 3.695312 -4.316406 3.75 -3.953125 C 3.800781 -3.597656 3.878906 -3.28125 3.984375 -3 C 4.085938 -2.726562 4.210938 -2.515625 4.359375 -2.359375 C 4.515625 -2.203125 4.6875 -2.125 4.875 -2.125 C 5.1875 -2.125 5.457031 -2.242188 5.6875 -2.484375 C 5.914062 -2.722656 6.117188 -3.066406 6.296875 -3.515625 C 6.472656 -3.960938 6.628906 -4.5 6.765625 -5.125 C 6.910156 -5.757812 7.039062 -6.46875 7.15625 -7.25 C 6.976562 -7.269531 6.789062 -7.289062 6.59375 -7.3125 C 6.394531 -7.332031 6.203125 -7.34375 6.015625 -7.34375 C 5.148438 -7.34375 4.539062 -7.148438 4.1875 -6.765625 C 3.84375 -6.378906 3.671875 -5.828125 3.671875 -5.109375 Z M 3.671875 -5.109375 "/></g></g></g><g fill="#000000" fill-opacity="1"><g transform="translate(54.81123, 44.009656)"><g><path d="M 4.1875 -9.453125 L 4.1875 -4.109375 C 4.1875 -3.421875 4.253906 -2.914062 4.390625 -2.59375 C 4.523438 -2.28125 4.804688 -2.125 5.234375 -2.125 C 5.609375 -2.125 5.921875 -2.320312 6.171875 -2.71875 C 6.421875 -3.125 6.617188 -3.664062 6.765625 -4.34375 C 6.921875 -5.019531 7.03125 -5.800781 7.09375 -6.6875 C 7.164062 -7.570312 7.203125 -8.492188 7.203125 -9.453125 L 10.234375 -9.453125 L 10.234375 0 L 7.203125 0 L 7.203125 -2.65625 C 7.003906 -2.101562 6.785156 -1.644531 6.546875 -1.28125 C 6.316406 -0.914062 6.066406 -0.625 5.796875 -0.40625 C 5.523438 -0.195312 5.234375 -0.046875 4.921875 0.046875 C 4.617188 0.140625 4.296875 0.1875 3.953125 0.1875 C 3.609375 0.1875 3.269531 0.128906 2.9375 0.015625 C 2.601562 -0.0976562 2.300781 -0.289062 2.03125 -0.5625 C 1.769531 -0.832031 1.554688 -1.195312 1.390625 -1.65625 C 1.234375 -2.125 1.15625 -2.707031 1.15625 -3.40625 L 1.15625 -9.453125 Z M 4.1875 -9.453125 "/></g></g></g><g fill="#000000" fill-opacity="1"><g transform="translate(66.204954, 44.009656)"><g><path d="M 3.921875 -9.453125 C 4.003906 -8.816406 4.066406 -8.25 4.109375 -7.75 C 4.160156 -7.25 4.1875 -6.734375 4.1875 -6.203125 C 4.664062 -7.347656 5.234375 -8.207031 5.890625 -8.78125 C 6.554688 -9.363281 7.234375 -9.65625 7.921875 -9.65625 C 8.003906 -9.21875 8.0625 -8.734375 8.09375 -8.203125 C 8.132812 -7.671875 8.15625 -7.148438 8.15625 -6.640625 C 7.382812 -6.640625 6.75 -6.5625 6.25 -6.40625 C 5.75 -6.257812 5.347656 -5.992188 5.046875 -5.609375 C 4.753906 -5.222656 4.539062 -4.695312 4.40625 -4.03125 C 4.28125 -3.363281 4.207031 -2.503906 4.1875 -1.453125 L 4.1875 0 L 1.15625 0 L 1.15625 -6.0625 C 1.15625 -6.726562 1.128906 -7.316406 1.078125 -7.828125 C 1.035156 -8.347656 1 -8.890625 0.96875 -9.453125 Z M 3.921875 -9.453125 "/></g></g></g><g fill="#000000" fill-opacity="1"><g transform="translate(74.740783, 44.009656)"><g><path d="M 1.15625 0 L 1.15625 -9.453125 L 4.1875 -9.453125 L 4.1875 0 Z M 0.8125 -12.046875 C 1.0625 -12.367188 1.359375 -12.6875 1.703125 -13 C 2.046875 -13.320312 2.367188 -13.597656 2.671875 -13.828125 C 2.972656 -13.597656 3.289062 -13.316406 3.625 -12.984375 C 3.957031 -12.660156 4.25 -12.347656 4.5 -12.046875 C 4.25 -11.742188 3.953125 -11.425781 3.609375 -11.09375 C 3.273438 -10.757812 2.960938 -10.488281 2.671875 -10.28125 C 2.378906 -10.5 2.054688 -10.769531 1.703125 -11.09375 C 1.359375 -11.414062 1.0625 -11.734375 0.8125 -12.046875 Z M 0.8125 -12.046875 "/></g></g></g><g fill="#000000" fill-opacity="1"><g transform="translate(80.059118, 44.009656)"><g><path d="M 3.921875 -9.453125 C 3.984375 -8.929688 4.035156 -8.457031 4.078125 -8.03125 C 4.117188 -7.613281 4.144531 -7.195312 4.15625 -6.78125 C 4.5625 -7.875 5.039062 -8.625 5.59375 -9.03125 C 6.144531 -9.445312 6.757812 -9.65625 7.4375 -9.65625 C 7.78125 -9.65625 8.117188 -9.597656 8.453125 -9.484375 C 8.785156 -9.367188 9.082031 -9.175781 9.34375 -8.90625 C 9.613281 -8.632812 9.828125 -8.265625 9.984375 -7.796875 C 10.148438 -7.335938 10.234375 -6.757812 10.234375 -6.0625 L 10.234375 0 L 7.203125 0 L 7.203125 -5.359375 C 7.203125 -6.035156 7.132812 -6.535156 7 -6.859375 C 6.863281 -7.179688 6.582031 -7.34375 6.15625 -7.34375 C 5.78125 -7.34375 5.46875 -7.140625 5.21875 -6.734375 C 4.96875 -6.328125 4.765625 -5.785156 4.609375 -5.109375 C 4.460938 -4.441406 4.351562 -3.664062 4.28125 -2.78125 C 4.21875 -1.894531 4.1875 -0.96875 4.1875 0 L 1.15625 0 L 1.15625 -6.0625 C 1.15625 -6.726562 1.128906 -7.316406 1.078125 -7.828125 C 1.035156 -8.347656 1 -8.890625 0.96875 -9.453125 Z M 3.921875 -9.453125 "/></g></g></g><g fill="#000000" fill-opacity="1"><g transform="translate(91.452842, 44.009656)"><g><path d="M 1.15625 0 L 1.15625 -13.625 L 4.1875 -13.625 L 4.1875 -6.8125 C 4.382812 -7.351562 4.597656 -7.804688 4.828125 -8.171875 C 5.066406 -8.535156 5.320312 -8.820312 5.59375 -9.03125 C 5.863281 -9.25 6.148438 -9.40625 6.453125 -9.5 C 6.765625 -9.601562 7.09375 -9.65625 7.4375 -9.65625 C 7.78125 -9.65625 8.117188 -9.597656 8.453125 -9.484375 C 8.785156 -9.367188 9.082031 -9.175781 9.34375 -8.90625 C 9.613281 -8.632812 9.828125 -8.265625 9.984375 -7.796875 C 10.148438 -7.335938 10.234375 -6.757812 10.234375 -6.0625 L 10.234375 0 L 7.203125 0 L 7.203125 -5.359375 C 7.203125 -6.035156 7.132812 -6.535156 7 -6.859375 C 6.863281 -7.179688 6.582031 -7.34375 6.15625 -7.34375 C 5.78125 -7.34375 5.46875 -7.140625 5.21875 -6.734375 C 4.96875 -6.328125 4.765625 -5.785156 4.609375 -5.109375 C 4.460938 -4.441406 4.351562 -3.664062 4.28125 -2.78125 C 4.21875 -1.894531 4.1875 -0.96875 4.1875 0 Z M 1.15625 0 "/></g></g></g><g fill="#000000" fill-opacity="1"><g transform="translate(102.846566, 44.009656)"><g><path d="M 0.71875 -4.015625 C 0.71875 -5.054688 0.859375 -5.9375 1.140625 -6.65625 C 1.429688 -7.375 1.828125 -7.953125 2.328125 -8.390625 C 2.828125 -8.835938 3.425781 -9.160156 4.125 -9.359375 C 4.820312 -9.554688 5.578125 -9.65625 6.390625 -9.65625 C 6.972656 -9.65625 7.550781 -9.632812 8.125 -9.59375 C 8.695312 -9.550781 9.28125 -9.503906 9.875 -9.453125 L 9.875 0 L 6.84375 0 L 6.84375 -2.609375 C 6.644531 -2.078125 6.425781 -1.628906 6.1875 -1.265625 C 5.957031 -0.910156 5.707031 -0.625 5.4375 -0.40625 C 5.175781 -0.1875 4.894531 -0.0351562 4.59375 0.046875 C 4.289062 0.140625 3.976562 0.1875 3.65625 0.1875 C 3.1875 0.1875 2.769531 0.0859375 2.40625 -0.109375 C 2.039062 -0.316406 1.726562 -0.601562 1.46875 -0.96875 C 1.21875 -1.332031 1.03125 -1.769531 0.90625 -2.28125 C 0.78125 -2.800781 0.71875 -3.378906 0.71875 -4.015625 Z M 4.875 -2.125 C 5.1875 -2.125 5.457031 -2.242188 5.6875 -2.484375 C 5.914062 -2.722656 6.117188 -3.066406 6.296875 -3.515625 C 6.472656 -3.960938 6.628906 -4.5 6.765625 -5.125 C 6.910156 -5.757812 7.039062 -6.46875 7.15625 -7.25 C 6.976562 -7.269531 6.789062 -7.289062 6.59375 -7.3125 C 6.394531 -7.332031 6.203125 -7.34375 6.015625 -7.34375 C 5.148438 -7.34375 4.539062 -7.148438 4.1875 -6.765625 C 3.84375 -6.378906 3.671875 -5.828125 3.671875 -5.109375 C 3.671875 -4.703125 3.695312 -4.316406 3.75 -3.953125 C 3.800781 -3.597656 3.878906 -3.28125 3.984375 -3 C 4.085938 -2.726562 4.210938 -2.515625 4.359375 -2.359375 C 4.515625 -2.203125 4.6875 -2.125 4.875 -2.125 Z M 4.875 -2.125 "/></g></g></g><g fill="#000000" fill-opacity="1"><g transform="translate(113.880678, 44.009656)"><g/></g></g><g fill="#000000" fill-opacity="1"><g transform="translate(117.665964, 44.009656)"><g><path d="M 0.1875 -7.15625 C 0.1875 -7.320312 0.1875 -7.503906 0.1875 -7.703125 C 0.195312 -7.910156 0.207031 -8.117188 0.21875 -8.328125 C 0.238281 -8.535156 0.257812 -8.738281 0.28125 -8.9375 C 0.3125 -9.132812 0.335938 -9.304688 0.359375 -9.453125 L 1.703125 -9.453125 L 1.703125 -10.796875 C 1.878906 -10.992188 2.085938 -11.179688 2.328125 -11.359375 C 2.578125 -11.535156 2.835938 -11.695312 3.109375 -11.84375 C 3.378906 -12 3.65625 -12.128906 3.9375 -12.234375 C 4.226562 -12.347656 4.492188 -12.429688 4.734375 -12.484375 L 4.734375 -9.234375 C 5.335938 -9.316406 5.890625 -9.375 6.390625 -9.40625 C 6.898438 -9.4375 7.4375 -9.453125 8 -9.453125 C 8 -9.234375 7.988281 -9.023438 7.96875 -8.828125 C 7.957031 -8.640625 7.929688 -8.457031 7.890625 -8.28125 C 7.847656 -8.101562 7.800781 -7.921875 7.75 -7.734375 C 7.707031 -7.554688 7.65625 -7.363281 7.59375 -7.15625 C 7.144531 -7.15625 6.703125 -7.160156 6.265625 -7.171875 C 5.835938 -7.179688 5.328125 -7.210938 4.734375 -7.265625 L 4.734375 -3.734375 C 4.734375 -3.097656 4.894531 -2.671875 5.21875 -2.453125 C 5.539062 -2.234375 5.914062 -2.125 6.34375 -2.125 C 6.875 -2.125 7.425781 -2.179688 8 -2.296875 C 8 -2.140625 7.988281 -1.960938 7.96875 -1.765625 C 7.957031 -1.566406 7.929688 -1.367188 7.890625 -1.171875 C 7.847656 -0.984375 7.804688 -0.796875 7.765625 -0.609375 C 7.734375 -0.429688 7.695312 -0.28125 7.65625 -0.15625 C 7.394531 -0.0507812 7.054688 0.03125 6.640625 0.09375 C 6.234375 0.15625 5.84375 0.1875 5.46875 0.1875 C 4.25 0.1875 3.316406 -0.0820312 2.671875 -0.625 C 2.023438 -1.175781 1.703125 -2.066406 1.703125 -3.296875 L 1.703125 -7.15625 Z M 0.1875 -7.15625 "/></g></g></g><g fill="#000000" fill-opacity="1"><g transform="translate(126.050373, 44.009656)"><g><path d="M 0.71875 -4.015625 C 0.71875 -5.054688 0.859375 -5.9375 1.140625 -6.65625 C 1.429688 -7.375 1.828125 -7.953125 2.328125 -8.390625 C 2.828125 -8.835938 3.425781 -9.160156 4.125 -9.359375 C 4.820312 -9.554688 5.578125 -9.65625 6.390625 -9.65625 C 6.972656 -9.65625 7.550781 -9.632812 8.125 -9.59375 C 8.695312 -9.550781 9.28125 -9.503906 9.875 -9.453125 L 9.875 0 L 6.84375 0 L 6.84375 -2.609375 C 6.644531 -2.078125 6.425781 -1.628906 6.1875 -1.265625 C 5.957031 -0.910156 5.707031 -0.625 5.4375 -0.40625 C 5.175781 -0.1875 4.894531 -0.0351562 4.59375 0.046875 C 4.289062 0.140625 3.976562 0.1875 3.65625 0.1875 C 3.1875 0.1875 2.769531 0.0859375 2.40625 -0.109375 C 2.039062 -0.316406 1.726562 -0.601562 1.46875 -0.96875 C 1.21875 -1.332031 1.03125 -1.769531 0.90625 -2.28125 C 0.78125 -2.800781 0.71875 -3.378906 0.71875 -4.015625 Z M 4.875 -2.125 C 5.1875 -2.125 5.457031 -2.242188 5.6875 -2.484375 C 5.914062 -2.722656 6.117188 -3.066406 6.296875 -3.515625 C 6.472656 -3.960938 6.628906 -4.5 6.765625 -5.125 C 6.910156 -5.757812 7.039062 -6.46875 7.15625 -7.25 C 6.976562 -7.269531 6.789062 -7.289062 6.59375 -7.3125 C 6.394531 -7.332031 6.203125 -7.34375 6.015625 -7.34375 C 5.148438 -7.34375 4.539062 -7.148438 4.1875 -6.765625 C 3.84375 -6.378906 3.671875 -5.828125 3.671875 -5.109375 C 3.671875 -4.703125 3.695312 -4.316406 3.75 -3.953125 C 3.800781 -3.597656 3.878906 -3.28125 3.984375 -3 C 4.085938 -2.726562 4.210938 -2.515625 4.359375 -2.359375 C 4.515625 -2.203125 4.6875 -2.125 4.875 -2.125 Z M 4.875 -2.125 "/></g></g></g><g fill="#000000" fill-opacity="1"><g transform="translate(137.084486, 44.009656)"><g><path d="M 1.15625 -13.625 L 4.1875 -13.625 L 4.1875 0 L 1.15625 0 Z M 1.15625 -13.625 "/></g></g></g><g fill="#000000" fill-opacity="1"><g transform="translate(71.561197, 118.574308)"><g><path d="M 1.359375 -3.640625 C 1.898438 -3.390625 2.539062 -3.179688 3.28125 -3.015625 C 4.03125 -2.859375 4.742188 -2.78125 5.421875 -2.78125 C 5.785156 -2.78125 6.125 -2.804688 6.4375 -2.859375 C 6.757812 -2.921875 7.039062 -3.019531 7.28125 -3.15625 C 7.53125 -3.289062 7.726562 -3.460938 7.875 -3.671875 C 8.019531 -3.878906 8.09375 -4.140625 8.09375 -4.453125 C 8.09375 -4.960938 7.890625 -5.351562 7.484375 -5.625 C 7.085938 -5.90625 6.445312 -6.046875 5.5625 -6.046875 L 3.421875 -6.046875 L 3.421875 -9.046875 L 5.125 -9.046875 C 6 -9.046875 6.640625 -9.195312 7.046875 -9.5 C 7.453125 -9.800781 7.65625 -10.1875 7.65625 -10.65625 C 7.65625 -11.175781 7.457031 -11.550781 7.0625 -11.78125 C 6.664062 -12.007812 6.160156 -12.125 5.546875 -12.125 C 4.921875 -12.125 4.273438 -12.039062 3.609375 -11.875 C 2.941406 -11.71875 2.28125 -11.515625 1.625 -11.265625 C 1.5625 -11.429688 1.503906 -11.640625 1.453125 -11.890625 C 1.398438 -12.148438 1.351562 -12.421875 1.3125 -12.703125 C 1.269531 -12.984375 1.238281 -13.265625 1.21875 -13.546875 C 1.195312 -13.828125 1.1875 -14.066406 1.1875 -14.265625 C 2 -14.554688 2.785156 -14.769531 3.546875 -14.90625 C 4.304688 -15.050781 5.082031 -15.125 5.875 -15.125 C 7.726562 -15.125 9.125 -14.800781 10.0625 -14.15625 C 11.007812 -13.519531 11.484375 -12.566406 11.484375 -11.296875 C 11.484375 -10.472656 11.226562 -9.78125 10.71875 -9.21875 C 10.207031 -8.65625 9.585938 -8.242188 8.859375 -7.984375 C 9.734375 -7.734375 10.460938 -7.296875 11.046875 -6.671875 C 11.628906 -6.054688 11.921875 -5.234375 11.921875 -4.203125 C 11.921875 -2.753906 11.375 -1.65625 10.28125 -0.90625 C 9.195312 -0.15625 7.707031 0.21875 5.8125 0.21875 C 5.101562 0.21875 4.3125 0.144531 3.4375 0 C 2.570312 -0.132812 1.738281 -0.347656 0.9375 -0.640625 C 0.9375 -0.835938 0.945312 -1.078125 0.96875 -1.359375 C 1 -1.640625 1.03125 -1.921875 1.0625 -2.203125 C 1.101562 -2.484375 1.144531 -2.75 1.1875 -3 C 1.238281 -3.257812 1.296875 -3.472656 1.359375 -3.640625 Z M 1.359375 -3.640625 "/></g></g></g><g fill="#000000" fill-opacity="1"><g transform="translate(84.535118, 118.574308)"><g><path d="M 1.046875 -7.296875 C 1.046875 -8.660156 1.207031 -9.832031 1.53125 -10.8125 C 1.851562 -11.789062 2.320312 -12.597656 2.9375 -13.234375 C 3.550781 -13.878906 4.300781 -14.351562 5.1875 -14.65625 C 6.070312 -14.96875 7.078125 -15.125 8.203125 -15.125 C 8.859375 -15.125 9.519531 -15.070312 10.1875 -14.96875 C 10.863281 -14.863281 11.515625 -14.726562 12.140625 -14.5625 C 12.140625 -14.351562 12.128906 -14.109375 12.109375 -13.828125 C 12.085938 -13.554688 12.054688 -13.273438 12.015625 -12.984375 C 11.972656 -12.703125 11.925781 -12.4375 11.875 -12.1875 C 11.820312 -11.9375 11.765625 -11.734375 11.703125 -11.578125 C 11.117188 -11.773438 10.539062 -11.925781 9.96875 -12.03125 C 9.40625 -12.144531 8.875 -12.203125 8.375 -12.203125 C 7.238281 -12.203125 6.363281 -11.835938 5.75 -11.109375 C 5.144531 -10.378906 4.828125 -9.191406 4.796875 -7.546875 C 5.117188 -8.273438 5.578125 -8.84375 6.171875 -9.25 C 6.765625 -9.65625 7.457031 -9.859375 8.25 -9.859375 C 8.800781 -9.859375 9.332031 -9.769531 9.84375 -9.59375 C 10.363281 -9.425781 10.828125 -9.148438 11.234375 -8.765625 C 11.648438 -8.390625 11.984375 -7.894531 12.234375 -7.28125 C 12.484375 -6.664062 12.609375 -5.921875 12.609375 -5.046875 C 12.609375 -4.171875 12.457031 -3.398438 12.15625 -2.734375 C 11.851562 -2.078125 11.441406 -1.53125 10.921875 -1.09375 C 10.410156 -0.65625 9.8125 -0.328125 9.125 -0.109375 C 8.445312 0.109375 7.726562 0.21875 6.96875 0.21875 C 5.039062 0.21875 3.570312 -0.40625 2.5625 -1.65625 C 1.550781 -2.914062 1.046875 -4.796875 1.046875 -7.296875 Z M 4.84375 -6.21875 C 4.914062 -5.125 5.117188 -4.273438 5.453125 -3.671875 C 5.796875 -3.078125 6.332031 -2.78125 7.0625 -2.78125 C 7.601562 -2.78125 8.0625 -2.957031 8.4375 -3.3125 C 8.820312 -3.675781 9.015625 -4.222656 9.015625 -4.953125 C 9.015625 -5.359375 8.957031 -5.691406 8.84375 -5.953125 C 8.738281 -6.222656 8.585938 -6.4375 8.390625 -6.59375 C 8.203125 -6.757812 7.984375 -6.875 7.734375 -6.9375 C 7.484375 -7 7.222656 -7.03125 6.953125 -7.03125 C 6.222656 -7.03125 5.519531 -6.757812 4.84375 -6.21875 Z M 4.84375 -6.21875 "/></g></g></g></svg>